<?xml version="1.0" encoding="UTF-8"?>
<svg id="Capa_1" xmlns="http://www.w3.org/2000/svg" version="1.1" viewBox="0 0 500 500">
  <!-- Generator: Adobe Illustrator 30.1.0, SVG Export Plug-In . SVG Version: 2.1.1 Build 136)  -->
  <defs>
    <style>
      .st0 {
        fill: #fff;
      }
    </style>
  </defs>
  <path class="st0" d="M75.54,195.7c-4.3-2.8-10.05-2.16-13.11,2.06-6.1,8.39-2.69,19.84,6.17,24.68,1.24-.1,6.57-11.48,7.88-13.64,1.25-2.07,5.08-5.49,4.62-7.28-.17-.64-4.74-5.29-5.55-5.82Z"/>
  <path class="st0" d="M430.83,222.6c2.74-2.98,6.92-6,8.29-9.93,3.33-9.5-.68-21.27-12.46-18.52-1.96.46-8.03,5.34-8.14,7.2-.06.99,4.86,6.64,5.94,8.53,1.05,1.84,5.66,12.72,6.37,12.72Z"/>
  <path class="st0" d="M44.7,229.56c7.77,1.42,9.6,8.74,19.15,5.68,7.05-2.26-3.26-8.2-5.7-10.88-7.26-8-10.4-19.94-6.96-30.41,2.55-7.75,10.53-6.2,6.67-16.2-1.82-4.71-4-8.12-9.57-7.52-11.48,1.23-14.02,18.84-14.9,28.07-2.26.35-2.95-2.41-3.26-4.11-1.97-10.79,1.24-23.38,9.93-30.46l9.83-3.17c-16.22-17.51-28.95-.1-31.16,17.46-.16,1.26-.01,18.63-3.58,9.44-5.17-13.32-.4-36.54,13.65-42.78,17.25-7.67,34.25,11.66,40.62,25.87,2.98,6.65.35,8.78,10,9.53-2.24-14.51-5.32-32.96-15.94-43.96-14.15-14.66-38.59-11.84-49.57,4.98-19.58,30-6.15,73.8,15.15,99.3,11.31,13.54,25.42,26.52,44.34,18.32l8.62-26.53c-8.07,2.57-11.99,9.84-21.28,9.61-6.16-.15-15.51-5.56-16.07-12.22Z"/>
  <path class="st0" d="M323.15,77.6c-29.36-1.78-53.25,14.27-72.33,34.64-3.61,1-5.98-4.22-8.42-6.43-68.61-62.14-152.18-11.94-126.4,76.37,6.89,23.61,22.26,39.69,43.9,50.75,2.5,1.28,18.34,7.35,18.57,8.36.35,1.55-12.57,10.14-14.82,12.11-78.51,68.96,6.34,174.54,92.61,168.92,80.5-5.25,155.04-104.15,79.46-168.9-4.15-3.56-10.92-6.83-14.35-9.96-.65-.59-1.53-1.13-1.29-2.17,11.19-5.17,22.78-9.49,32.93-16.58,56.16-39.23,45.77-142.53-29.86-147.11ZM290.48,251.64c-2.92,1.99-9.22,4.83-12.09,1.79,3.97-4,9.72-6.96,11.7-12.59,3.92-11.16-6.29-21.68-17.82-18.69-2.88.75-6.31,3.85-8.96,4.95-3.68,1.54-1.69-2.48-.56-4.05,2.3-3.18,7.11-7.37,11.06-8.05,20.73-3.54,34.34,24.56,16.68,36.63ZM274.96,249.12c-2.37.42-4.35-3.27-9.58.01-4.24,2.66-6.2,11.07-7,11.68-3.26,2.44-2.77-9.36-2.54-10.8,1.32-8.4,15.26-23.84,24.25-17.4,6.1,4.38,1.4,15.35-5.13,16.5ZM237.12,196.57c1.87-1.37,4.89-2.89,7.15-3.27,4.45-.76,11.65-.32,15.32,2.5,2.38,1.83,2.21,3.76-.98,3.67-4.76-.13-9.7-.77-14.45-.21-2.5.29-8.13,2.81-9.63,2.51-2.97-.58,1.85-4.66,2.59-5.21ZM232.91,207.13c8.13-5.12,24.76-4.97,32.9-.17,1.5.88,7.39,5.03,3.36,6.06-1.35.34-11.01-2.33-13.83-2.54-10.16-.78-17.82,2.36-27.34,2.58-.86-1.18,3.82-5.24,4.91-5.93ZM241.44,260.81c-3.89-2.19-3.47-7.68-7.41-10.81-6.04-4.8-7.95.08-11.48-.59-7.53-1.43-11.44-15.95-2.63-17.93,9.48-2.13,21.42,11.63,22.78,20.27.25,1.58.62,8.66-1.26,9.06ZM223.14,214.88c5.38.75,14.11,6.99,14.4,12.94-1.2,1.22-13.8-9.35-22.04-5.09-7.63,3.94-10.16,15.28-5.27,22.41,2.06,3.01,16.31,12.92,2.27,9.01-22.16-6.16-12.27-42.44,10.63-39.26ZM136.67,137.42c-.55.46-2.41-.04-3.36.12-4.98-29.22,31.28-67.11,59.5-46.88,1.64,1.17,8.35,7.6,6.52,9.54-.64.67-14.03-4.9-17.77-5.24-19.71-1.75-32.75,10.79-39.98,27.83-.94,2.22-4.31,14.13-4.9,14.63ZM168.27,220.23c-3.38-1.27-21.6-5.64-21.95-6.73-1.31-4.08,9.29-4.05,11.65-3.81,2.27.23,4.33,1.43,6.6,1.64-7.87-20.98-8.79-44.3-3.03-65.97,3.9-14.67,13.47-32.38,31.45-22.75,7.86,4.21,18.71,23.2,15.75,31.72-.27.79-7.51,5.71-8.95,6.68-1.78,1.2-10.52,5.56-10.88,6.07-.73,1.03,1.03,2.38,1.78,2.97,5.06,4.01,14.36,7.42,19.94,11.32,2.18,2.45-.41,15.81-1.29,19.58-2.55,11.01-6.86,21.13-18.7,24.29.16,2.63,3.56,3.45,2.6,6.93-4.86.62-8.26-3.97-12.44-6.22-4.03-2.17-8.24-4.1-12.53-5.71ZM275.2,372.66c-14.28,10.2-35.32,10.45-50.39,2.03-1.96-1.09-10.57-5.98-8.1-8.83,20.22,4.61,41.08,4.62,61.33.04,5.03.32-1.09,5.51-2.84,6.76ZM331.95,326.94c2.56-1.46,12.83-8.73,13.25-11.12.41-2.34-12.72-9.13-5.6-9.89,4.47-.47,12.94,5.07,15.39,8.97,2.94,4.7,5.86,14.93-1.03,17.09-1.71-14.29-4.98-6.7-11.89-1.89-36.89,25.67-99.16,26.54-142.05,18.14-18.11-3.55-36.65-9.63-49.77-23.17-3.27.99-2.27,10.22-5.2,9.53-2.61-.61-2.45-9.44-2.18-11.72,1.4-12.01,19.98-18.72,19.96-13.89-4.09,4.68-10.98,5.3-5.21,12.17,5.06,6.02,18.75,11.36,26.28,13.67,39.45,12.08,111.57,12.92,148.06-7.89ZM353.08,212.62c-.5,1.13-18.48,5.73-21.7,6.96-3.6,1.38-25.07,13.62-26.07,12.57-2.06-2.15,4.42-6.55,3.47-7.8-4.72-.82-8.49-2.56-11.73-6.08-15.84-17.18-12.81-71.96,1.33-89.84,7.49-9.47,19.18-10.73,28.28-2.67,4.95,4.38,11.92,21.5,10.83,27.8-.5,2.87-15.6,10.46-18.71,13.49-.84.82-1.64,1.15-1.31,2.58,3.31,1.51,21.17,11.21,22.03,13.27,1.89,4.58-4.66,22.63-5.52,28.41,5.29-2.37,13.31-3.79,18.54-.87.89.49.83,1.54.56,2.17ZM363.1,136.64c-1.6-2.06-3.1-9.97-4.38-12.99-8.7-20.47-26.5-34.29-49.52-26.94-2.53.81-12.68,6.68-14.31,5.22,1.36-5.04,7.62-10.25,12.12-12.62,27.62-14.52,56.8,11.15,59.09,39.11.13,1.57.44,12.63-3,8.21Z"/>
  <path class="st0" d="M453.42,126.25c-21.82,2.5-31.17,34.62-32.57,52.96,2.01.07,6.04-.14,7.36-1.75.8-.98,3.82-9.58,5.21-12.15,7.68-14.21,23.88-30.39,40.7-18.94,9.8,6.67,13.84,20.15,12.73,31.54-.13,1.38-2.16,10.52-2.61,10.86-3.37,2.52-2.54-9.55-2.7-10.74-.8-5.95-3.79-16.27-8.11-20.54-6.79-6.71-19.39-5.66-23.05,3.5,9.81-1.1,17.17,8.4,18.89,17.15.35,1.77,1.01,6.89,1.03,8.59.03,1.88-.95,11.57-2.11,11.57-1.51,0-3.15-11.83-3.9-14.32-2.25-7.51-6.65-16.24-15.9-14.12-4.18.96-7.93,9.36-7.66,13.27.09,1.37,3.39,2.91,4.82,4.83,6.32,8.54,5.03,24.21-1.25,32.49-2.26,2.98-14.49,10.93-9.54,13.88,6.16,3.66,14.02-2.64,19.09-5.63.8,4.57-4.16,8.19-7.76,10.03-11.37,5.79-18.41-1.21-27.84-6.56,2.32,4.94,4.46,22.43,6.89,25.66,1.16,1.54,4.85,2.49,6.79,2.76,30.63,4.41,58.13-43.33,62.5-69.04,4.78-28.15-4.64-69.46-41.01-65.29Z"/>
</svg>