<?xml version="1.0" encoding="UTF-8"?>
<svg id="Capa_1" xmlns="http://www.w3.org/2000/svg" version="1.1" viewBox="0 0 500 500">
  <!-- Generator: Adobe Illustrator 30.1.0, SVG Export Plug-In . SVG Version: 2.1.1 Build 136)  -->
  <path d="M69.4,335.25c-31.8-3.35-57.25-57.1-58.21-85.75-1.13-33.66,18.27-68.57,56.17-63.05.82-16.96,6.49-35.44,13.93-50.72,1.51-3.09,6.74-9.74,7.24-12.29.46-2.34-2.58-.84-3.71-.45-3.81,1.31-12.36,7.05-14.61,7.37-1.37.19-1.31,0-1.24-1.24.28-5.44,7.61-16.2,11.07-20.66,10.41-13.42,25.1-24.14,41.01-30.17.19-1.41-1.85-.77-2.83-.8-9.56-.35-16.41,2.42-25.63,2.44-1.14-.98,7.51-9.62,8.52-10.59,19.98-19.18,48.12-27.61,75.28-30.07-.45-.97-3.45-2.11-4.46-2.45-5.85-1.99-12.96-2.67-19.14-3.24-.24-1.84-.03-2.1,1.33-3.14,5.6-4.28,20.7-8.35,27.81-9.61,21.81-3.88,45.25-2.11,66.87,2.18-1.74-1.65-4.7-3.88-6.76-5.03-4.2-2.35-14.44-5.34-17.25-7.97-.81-.76-1.5-1.13-1.21-2.43,38.42-4.43,77.22,12.09,107.82,34.14,2.37,1.01.37-4.3.16-5.04-1.27-4.32-5.5-10.18-5.48-14.05,0-.99-.05-1.71,1.24-1.22,2.95,1.11,9.52,5.22,12.41,7.12,14.94,9.82,25.84,23.83,33.18,40.02.57-7.11,1.49-14.06.41-21.14,1.86-.29,2.68.1,4.12,1.17,2.02,1.5,9.26,10.99,10.86,13.54,5.73,9.12,6.7,19.66,10.86,27.38,1.14,2.11,7.15,7.01,9.14,9.55,17.85,22.74,25.55,57.47,27.2,85.84,6.56,1.11,12.81,1,19.4,3.38,42.67,15.41,39.52,72.85,21.07,106.07-5.95,10.71-30.03,40.11-42.86,40.11h-13.83c-.32,0-2.5-2.14-2.05.41.25,1.45,1.36,3.04,1.77,4.75,2.25,9.55,4.27,24.53-.07,33.52-.43.9-.75,2.28-2.08,1.97-1.06-.24-7.14-16.33-9.36-13.82,1.68,9.8.77,20.3-2.43,29.69-.96,2.8-2.28,7.72-5.29,8.53-1.64-.38-5.08-13.64-8.55-14.64-1.8,12.49-7.93,25.35-15.5,35.34-2.67,3.52-13.8,16.06-17.53,16.7-2.73.47-1.78-1.46-1.98-1.61-.67-.5-8.87,11.55-10.15,13.01-15.93,18.37-41.14,34.99-64.84,40.91-54.3,13.57-107.56-8.53-138.59-53.93-.44,5.53-5.54.55-8.15-1.61-10.57-8.76-19.01-24.37-24-37-.76-1.92-2.85-10.58-3.24-11-1.38-1.45-1.38.54-1.69,1.16-2.14,4.17-4,8.84-4.81,13.48-2.53,2.29-7.22-11.84-7.56-13.17-.57-2.23-2.2-9.8-2.2-11.63v-12.2c0-.22,1.93-4.59-1.18-1.18-1.7,1.86-6.61,13.59-7.37,13.78-1.55.39-2.2-2.07-2.65-3.03-3.08-6.68-2.55-16.87-1.71-24.1.53-4.52,1.49-9.26,3.15-13.52-3.8-.28-8.06.39-11.8,0ZM242.78,180.3c-64.26-58.21-142.54-11.18-118.39,71.53,6.46,22.11,20.85,37.18,41.12,47.54,2.34,1.2,17.18,6.88,17.39,7.83.33,1.45-11.77,9.49-13.88,11.34-73.54,64.59,5.94,163.48,86.74,158.21,75.4-4.91,145.22-97.55,74.43-158.2-3.89-3.33-10.23-6.4-13.44-9.33-.61-.55-1.43-1.06-1.21-2.03,10.48-4.84,21.34-8.89,30.85-15.53,52.6-36.75,42.87-133.5-27.97-137.79-27.5-1.67-49.87,13.36-67.75,32.44-3.38.94-5.6-3.96-7.89-6.02ZM75.22,208.69c-13.25-13.73-36.14-11.09-46.43,4.66-18.34,28.1-5.76,69.12,14.19,93.01,10.6,12.68,23.81,24.84,41.53,17.16l8.08-24.85c-7.56,2.41-11.23,9.22-19.93,9-5.77-.14-14.53-5.21-15.05-11.45,7.28,1.33,8.99,8.19,17.93,5.32,6.6-2.12-3.05-7.68-5.33-10.19-6.8-7.49-9.74-18.67-6.51-28.48,2.39-7.26,9.86-5.81,6.25-15.17-1.7-4.41-3.75-7.6-8.96-7.05-10.75,1.15-13.13,17.65-13.96,26.29-2.12.32-2.76-2.26-3.05-3.85-1.85-10.11,1.16-21.9,9.3-28.53l9.21-2.97c-15.19-16.4-27.11-.09-29.19,16.35-.15,1.18-.01,17.45-3.35,8.84-4.84-12.48-.37-34.22,12.79-40.07,16.16-7.18,32.08,10.92,38.05,24.23,2.79,6.23.33,8.23,9.37,8.93-2.09-13.59-4.98-30.87-14.93-41.18ZM407.48,298.66c2.18,4.63,4.18,21,6.46,24.03,1.09,1.44,4.55,2.33,6.36,2.59,28.69,4.13,54.45-40.58,58.54-64.67,4.48-26.37-4.35-65.06-38.41-61.15-20.43,2.34-29.19,32.43-30.51,49.6,1.89.07,5.66-.13,6.9-1.64.75-.91,3.58-8.97,4.88-11.38,7.2-13.31,22.37-28.46,38.12-17.74,9.18,6.24,12.97,18.87,11.93,29.54-.13,1.29-2.02,9.86-2.44,10.17-3.16,2.36-2.38-8.95-2.53-10.06-.75-5.57-3.55-15.24-7.6-19.24-6.36-6.29-18.16-5.3-21.59,3.28,9.19-1.03,16.08,7.87,17.69,16.07.33,1.66.94,6.45.97,8.05.03,1.76-.89,10.84-1.98,10.84-1.41,0-2.95-11.08-3.65-13.41-2.1-7.03-6.23-15.21-14.89-13.23-3.92.9-7.42,8.76-7.18,12.43.09,1.28,3.18,2.72,4.51,4.52,5.92,8,4.71,22.68-1.17,30.44-2.12,2.79-13.57,10.24-8.94,13,5.77,3.43,13.13-2.47,17.88-5.27.75,4.28-3.89,7.68-7.27,9.39-10.65,5.42-17.25-1.13-26.07-6.14ZM74.21,266.43c-5.71,7.86-2.52,18.58,5.78,23.11,1.16-.09,6.15-10.75,7.38-12.78s4.76-5.14,4.32-6.81c-.16-.59-4.44-4.96-5.2-5.45-4.03-2.63-9.41-2.02-12.28,1.93ZM415.37,263.05c-1.83.43-7.52,5-7.62,6.75-.05.93,4.55,6.22,5.56,7.99s5.3,11.92,5.96,11.91c2.57-2.79,6.48-5.62,7.77-9.3,3.12-8.9-.63-19.92-11.67-17.35Z"/>
  <path d="M192.68,237.69c-.68.97.97,2.23,1.67,2.78,4.74,3.75,13.45,6.95,18.68,10.61,2.05,2.29-.39,14.81-1.2,18.34-2.39,10.31-6.43,19.79-17.52,22.75.15,2.46,3.34,3.23,2.43,6.49-4.56.58-7.74-3.72-11.65-5.83s-7.72-3.84-11.74-5.35c-3.17-1.19-20.23-5.28-20.56-6.3-1.23-3.82,8.7-3.79,10.91-3.57s4.06,1.34,6.18,1.53c-7.37-19.65-8.23-41.49-2.84-61.79,3.65-13.74,12.61-30.33,29.46-21.31,7.36,3.94,17.52,21.73,14.75,29.71-.26.74-7.03,5.34-8.38,6.25-1.67,1.13-9.85,5.21-10.19,5.68Z"/>
  <path d="M321.7,199.01c4.63,4.1,11.16,20.14,10.14,26.04-.46,2.69-14.61,9.79-17.52,12.64-.79.77-1.54,1.07-1.23,2.41,3.1,1.41,19.83,10.5,20.63,12.43,1.77,4.29-4.36,21.2-5.17,26.61,4.95-2.22,12.47-3.55,17.36-.82.83.46.78,1.45.52,2.03-.47,1.06-17.31,5.37-20.32,6.52-3.38,1.29-23.48,12.76-24.42,11.77-1.93-2.02,4.14-6.14,3.25-7.31-4.42-.76-7.95-2.4-10.99-5.69-14.83-16.09-12-67.4,1.25-84.15,7.01-8.87,17.96-10.05,26.49-2.5Z"/>
  <path d="M347.27,392.16c-1.6-13.38-4.67-6.28-11.14-1.77-34.56,24.05-92.87,24.86-133.05,16.99-16.97-3.33-34.33-9.02-46.62-21.7-3.06.93-2.13,9.57-4.87,8.93-2.45-.57-2.29-8.84-2.04-10.98,1.31-11.24,18.71-17.53,18.7-13.01-3.83,4.38-10.29,4.97-4.88,11.4,4.74,5.64,17.56,10.64,24.62,12.8,36.95,11.32,104.5,12.1,138.68-7.39,2.4-1.37,12.02-8.18,12.41-10.42s-11.91-8.55-5.25-9.26c4.19-.44,12.12,4.75,14.41,8.4,2.75,4.4,5.49,13.98-.96,16.01Z"/>
  <path d="M291.94,176.68c1.28-4.72,7.13-9.6,11.35-11.82,25.87-13.6,53.2,10.45,55.35,36.64.12,1.47.41,11.83-2.81,7.69-1.5-1.93-2.9-9.34-4.1-12.16-8.15-19.18-24.82-32.11-46.39-25.23-2.37.76-11.87,6.26-13.41,4.89Z"/>
  <path d="M202.43,175.06c-.6.63-13.14-4.59-16.65-4.9-18.46-1.64-30.68,10.11-37.44,26.06-.88,2.08-4.04,13.24-4.59,13.7-.51.43-2.26-.04-3.15.12-4.66-27.37,29.3-62.86,55.73-43.91,1.53,1.1,7.82,7.12,6.1,8.94Z"/>
  <path d="M218.71,423.88c18.94,4.32,38.47,4.33,57.45.04,4.71.3-1.02,5.16-2.66,6.33-13.37,9.56-33.08,9.78-47.2,1.9-1.83-1.02-9.9-5.6-7.58-8.27Z"/>
  <path d="M272.2,282.59c19.42-3.31,32.16,23,15.62,34.31-2.73,1.87-8.64,4.53-11.32,1.68,3.72-3.75,9.1-6.52,10.96-11.79,3.67-10.45-5.89-20.3-16.69-17.5-2.7.7-5.91,3.6-8.39,4.64-3.45,1.44-1.59-2.33-.52-3.79,2.15-2.97,6.65-6.9,10.36-7.54Z"/>
  <path d="M238.23,294.59c-1.13,1.14-12.93-8.75-20.64-4.77-7.15,3.69-9.51,14.31-4.93,20.99,1.93,2.82,15.27,12.1,2.13,8.44-20.76-5.77-11.5-39.75,9.95-36.78,5.04.7,13.22,6.55,13.49,12.12Z"/>
  <path d="M221.73,298.02c8.88-1.99,20.07,10.89,21.33,18.99.23,1.48.58,8.11-1.18,8.48-3.65-2.05-3.25-7.2-6.94-10.13-5.66-4.49-7.45.08-10.75-.55-7.05-1.34-10.71-14.94-2.47-16.79Z"/>
  <path d="M257.75,325.49c-3.05,2.29-2.59-8.76-2.38-10.11,1.24-7.86,14.29-22.33,22.71-16.29,5.72,4.1,1.32,14.38-4.81,15.46-2.22.39-4.07-3.06-8.97.01-3.97,2.49-5.8,10.37-6.56,10.94Z"/>
  <path d="M229.29,280.76c-.81-1.1,3.58-4.91,4.6-5.55,7.61-4.79,23.19-4.66,30.82-.16,1.4.83,6.93,4.71,3.15,5.67-1.26.32-10.31-2.18-12.95-2.38-9.52-.73-16.7,2.21-25.61,2.42Z"/>
  <path d="M244.53,262.26c4.17-.71,10.91-.3,14.35,2.35,2.23,1.71,2.07,3.52-.92,3.44-4.46-.12-9.08-.72-13.54-.2-2.34.27-7.62,2.63-9.02,2.35-2.78-.54,1.73-4.37,2.43-4.88,1.75-1.28,4.58-2.7,6.7-3.06Z"/>
</svg>